<svg xmlns="http://www.w3.org/2000/svg" width="44" height="40.9" viewBox="0 0 44 40.9">
  <path id="Feed_" data-name="Feed " d="M56,1307.7a1,1,0,0,1-1-1v-14.9a3.1,3.1,0,0,1,.9-2.2L74.4,1271a1,1,0,0,1,1.2,0l18.5,18.6a2.94,2.94,0,0,1,.9,2.2v14.9a1,1,0,0,1-1,1H82a1,1,0,0,1-1-1v-9a6,6,0,0,0-12,0v9a1,1,0,0,1-1,1H56m19-39a3.176,3.176,0,0,0-2,.8l-18.5,18.6a5.145,5.145,0,0,0-1.5,3.6v14.9a3.009,3.009,0,0,0,3,3H68a3.009,3.009,0,0,0,3-3v-9a4,4,0,0,1,8,0v9a3.009,3.009,0,0,0,3,3H94a3.009,3.009,0,0,0,3-3v-14.9a5.075,5.075,0,0,0-1.5-3.6L77,1269.6a2.829,2.829,0,0,0-2-.9" transform="translate(-53 -1268.7)" fill="#262627"/>
</svg>
