<svg id="Layer_1" enable-background="new 0 0 512 512" height="512" viewBox="0 0 512 512" width="512" xmlns="http://www.w3.org/2000/svg"><path d="m47.117 158.533h417.766c25.98 0 47.117-21.137 47.117-47.117 0-26.013-21.137-47.149-47.117-47.149h-417.766c-25.98 0-47.117 21.136-47.117 47.149 0 25.98 21.137 47.117 47.117 47.117zm0-64.266h417.766c9.438 0 17.117 7.679 17.117 17.117 0 9.471-7.679 17.149-17.117 17.149h-417.766c-9.438 0-17.117-7.679-17.117-17.149 0-9.439 7.679-17.117 17.117-17.117z"/><path d="m464.883 208.867h-417.766c-25.98 0-47.117 21.136-47.117 47.149 0 25.98 21.137 47.117 47.117 47.117h417.766c25.98 0 47.117-21.137 47.117-47.117 0-26.013-21.137-47.149-47.117-47.149zm0 64.266h-417.766c-9.438 0-17.117-7.679-17.117-17.149 0-9.438 7.679-17.117 17.117-17.117h417.766c9.438 0 17.117 7.679 17.117 17.117 0 9.471-7.679 17.149-17.117 17.149z"/><path d="m464.883 353.467h-417.766c-25.98 0-47.117 21.137-47.117 47.149 0 25.98 21.137 47.117 47.117 47.117h417.766c25.98 0 47.117-21.137 47.117-47.117 0-26.012-21.137-47.149-47.117-47.149zm0 64.266h-417.766c-9.438 0-17.117-7.679-17.117-17.149 0-9.438 7.679-17.117 17.117-17.117h417.766c9.438 0 17.117 7.679 17.117 17.117 0 9.471-7.679 17.149-17.117 17.149z"/></svg>