<svg height="512pt" viewBox="-80 0 512 512.00071" width="512pt" xmlns="http://www.w3.org/2000/svg"><path d="m284.90625 132.957031c-3.484375-5.761719-10.382812-8.5-16.867188-6.691406-6.484374 1.808594-10.972656 7.71875-10.972656 14.449219 0 18.308594-14.894531 33.199218-33.199218 33.199218-18.304688 0-33.199219-14.890624-33.199219-33.199218v-125.714844c0-6.066406-3.65625-11.535156-9.261719-13.855469-5.605469-2.324219-12.054688-1.042969-16.34375 3.25-1.6875 1.683594-41.683594 41.917969-82.207031 102.703125-23.898438 35.84375-42.96875 71.398438-56.679688 105.675782-17.367187 43.425781-26.175781 84.996093-26.175781 123.5625 0 96.859374 78.804688 175.664062 175.667969 175.664062 96.859375 0 175.664062-78.804688 175.664062-175.664062.003907-62.003907-22.347656-130.429688-66.425781-203.378907zm0 0" fill="#ff9f00"/><path d="m284.90625 132.957031c-3.484375-5.761719-10.382812-8.5-16.867188-6.691406-6.484374 1.808594-10.972656 7.71875-10.972656 14.449219 0 18.308594-14.894531 33.199218-33.199218 33.199218-18.304688 0-33.199219-14.890624-33.199219-33.199218v-125.714844c0-6.066406-3.65625-11.535156-9.261719-13.855469-1.855469-.773437-3.804688-1.1367185-5.738281-1.1367185v511.9921875c96.863281 0 175.667969-78.804688 175.667969-175.667969 0-62-22.351563-130.425781-66.429688-203.375zm0 0" fill="#ff641a"/><path d="m260.761719 253.167969h-64.269531c-8.285157 0-15 6.714843-15 15-.003907 8.285156 6.714843 15 14.996093 15h28.058594l-64.085937 64.085937-34.835938-34.835937c-5.855469-5.859375-15.351562-5.859375-21.210938 0l-34.085937 34.078125c-5.859375 5.859375-5.859375 15.355468 0 21.214844 5.855469 5.859374 15.351563 5.859374 21.210937 0l23.480469-23.472657 34.835938 34.835938c2.8125 2.8125 6.628906 4.390625 10.605469 4.390625 3.976562 0 7.792968-1.578125 10.605468-4.390625l74.691406-74.691407v28.050782c0 8.285156 6.714844 15 15 15 8.285157 0 15-6.714844 15-15v-64.265625c0-8.28125-6.714843-15-14.996093-15zm0 0" fill="#e7f0ef"/><path d="m260.761719 253.167969h-64.269531c-8.285157 0-15 6.714843-15 15-.003907 8.285156 6.714843 15 14.996093 15h28.058594l-48.878906 48.878906v42.425781l70.09375-70.089844v28.050782c0 8.285156 6.714843 15 15 15 8.28125 0 15-6.714844 15-15v-64.265625c-.003907-8.28125-6.71875-15-15-15zm0 0" fill="#c5e1e6"/></svg>