<?xml version="1.0"?>
<svg xmlns="http://www.w3.org/2000/svg" width="512" height="512" viewBox="0 0 512 512"><g><g><path d="M431.36,80.64A248,248,0,1,0,80.64,431.36,248,248,0,1,0,431.36,80.64ZM420.05,420.05A232,232,0,0,1,91.95,91.95a232,232,0,0,1,328.1,328.1Z"/><path d="M176,464.7a7.982,7.982,0,0,1-2.963-.571A224.077,224.077,0,0,1,32,256a8,8,0,0,1,16,0A208.073,208.073,0,0,0,178.965,449.271,8,8,0,0,1,176,464.7Z"/><path d="M216.009,476.305a8.072,8.072,0,0,1-1.482-.138c-5.557-1.041-11.141-2.309-16.595-3.77a8,8,0,1,1,4.136-15.455c5.063,1.355,10.245,2.533,15.405,3.5a8,8,0,0,1-1.464,15.865Z"/></g><path d="M208.538,352a8,8,0,0,1-8-8V168a8,8,0,0,1,12.131-6.851l145.924,88a8,8,0,0,1,0,13.7l-145.924,88A8,8,0,0,1,208.538,352Zm8-169.833V329.833L338.971,256Z"/></g></svg>
